<svg id="Layer_1" enable-background="new 0 0 511.956 511.956" height="512" viewBox="0 0 511.956 511.956" width="512" xmlns="http://www.w3.org/2000/svg"><g><g><path d="m503.781 25.521c-1.974-8.38-8.344-14.949-16.665-17.167-44.858-11.979-87.76-11.072-127.512 2.695-34.853 12.07-67.078 33.45-98.517 65.361-41.791 42.419-75.825 97.856-104.478 150.204-20.682-7.794-46.337-5.659-66.843 6.178-24.353 14.06-37.765 38.714-37.765 69.42 0 5.473 4.399 9.929 9.872 9.999l71.869.919.733.733c-26.753 19.55-61.979 47.196-88.685 78.225-31.215 36.269-46.191 70.94-45.782 105.995-.044 3.737 1.273 7.19 3.724 9.749 2.486 2.595 5.939 4.055 9.718 4.111.609.009 1.215.014 1.825.014 34.538 0 68.739-14.965 104.483-45.702 31.071-26.719 58.756-61.99 78.331-88.779l.746.746.919 71.869c.07 5.473 4.526 9.872 9.999 9.872 30.705 0 55.359-13.411 69.419-37.764 11.839-20.506 13.974-46.162 6.179-66.845 52.279-28.616 107.644-62.602 150.04-104.323 31.901-31.393 53.297-63.568 65.409-98.364 13.8-39.642 14.802-82.421 2.981-127.146zm-77.364-5.467c17.543 0 36.042 2.417 55.545 7.625 1.415.377 2.146 1.517 2.359 2.458.027.119.056.236.087.354 6.054 22.851 8.265 44.3 7.256 64.478l-74.654-74.654c3.109-.156 6.237-.261 9.407-.261zm-265.637 320.113 11.006 11.006c-19.089 25.93-43.172 53.389-69.328 58.323 4.931-26.156 32.395-50.243 58.322-69.329zm55.073 26.788-70.843-70.843c-1.261-1.261-1.144-2.982-.5-4.047.106-.176.208-.356.303-.539l1.312-2.512c5.562-10.652 11.294-21.629 17.224-32.776l92.379 92.378c-11.148 5.93-22.124 11.662-32.776 17.224l-3.228 1.686c-1.489.78-3.048.253-3.871-.571zm-116.086-116.842c14.359-8.291 32.521-10.235 47.202-5.652-6.462 12.106-12.646 23.945-18.572 35.294l-1.188 2.274c-2.004 3.433-3.047 7.205-3.172 10.976l-51.411-.658c2.424-18.619 11.848-33.405 27.141-42.234zm-79.64 241.716c2.53-49.305 42.718-94.552 88.477-132.608-15.837 17.434-27.158 37.23-26.923 59.139-.022 3.157 1.125 6.102 3.247 8.318 2.173 2.269 5.152 3.545 8.383 3.592.32.005.633.007.952.007 21.641 0 41.212-11.253 58.471-26.931-38.06 45.762-83.305 85.945-132.607 88.483zm241.724-79.63c-8.829 15.292-23.614 24.716-42.233 27.14l-.658-51.427c3.418-.121 6.847-.992 10.04-2.668l3.208-1.675c11.349-5.926 23.188-12.111 35.295-18.573 4.584 14.681 2.639 32.843-5.652 47.203zm12.265-73.48-100.87-100.869c51.528-94.492 118.245-195.294 218.505-214.51l96.889 96.889c-19.219 100.25-120.046 166.966-214.524 218.49z"/><path d="m303.116 208.848c1.953 1.953 4.512 2.929 7.071 2.929s5.119-.977 7.071-2.929l3.735-3.735c2.492.773 5.139 1.19 7.882 1.19 14.704 0 26.667-11.962 26.667-26.667v-26.429c0-3.676 2.991-6.667 6.666-6.667 3.676 0 6.667 2.991 6.667 6.667 0 5.523 4.477 10 10 10s10-4.477 10-10c0-4.609-1.176-8.948-3.243-12.734l2.336-2.336c3.905-3.905 3.905-10.237 0-14.142s-10.237-3.905-14.142 0l-3.735 3.735c-2.492-.773-5.14-1.19-7.883-1.19-14.704 0-26.667 11.963-26.667 26.667v26.429c0 3.676-2.991 6.667-6.667 6.667s-6.667-2.991-6.667-6.667c0-5.523-4.477-10-10-10s-10 4.477-10 10c0 4.609 1.176 8.948 3.243 12.734l-2.335 2.335c-3.903 3.906-3.904 10.238.001 14.143z"/><path d="m409.183 102.783c-21.765-21.766-52.738-30.849-82.851-24.296-5.396 1.174-8.819 6.501-7.645 11.898 1.175 5.396 6.5 8.82 11.898 7.645 23.429-5.099 47.526 1.965 64.455 18.895 27.293 27.292 27.293 71.701 0 98.994s-71.702 27.293-98.995 0c-16.928-16.927-23.992-41.021-18.896-64.452 1.174-5.397-2.25-10.723-7.646-11.897-5.4-1.173-10.723 2.249-11.897 7.646-6.549 30.112 2.533 61.083 24.296 82.845 17.545 17.545 40.593 26.318 63.64 26.318s46.094-8.772 63.64-26.318c35.091-35.09 35.091-92.188.001-127.278z"/><path d="m288.975 119.853c5.523 0 10-4.477 10-10s-4.477-10-10-10h-.007c-5.523 0-9.996 4.477-9.996 10s4.48 10 10.003 10z"/></g></g></svg>